# xmcd
#
# Track frame offsets:
#	150
#	29318
#	60818
#	95183
#	123031
#	146184
#	170124
#	195662
#	223517
#	247300
#
# Disc length: 3777 seconds
#
# Revision: 0
# Processed by: cddbd v1.5.2PL0 Copyright (c) Steve Scherf et al.
# Submitted via: EZCDAudioConverter 3.0.3.2
#
DISCID=950ebf0a
DTITLE=JVT BAND - For You
DYEAR=1900
DGENRE=
TTITLE0=Lumpsugar Love Affair
TTITLE1=My Woman
TTITLE2=For You
TTITLE3=No Voice
TTITLE4=Time
TTITLE5=Tonight
TTITLE6=Wee Boy Brown 
TTITLE7=Dead End Street
TTITLE8=Mo's Song
TTITLE9=Cry Baby
EXTD=
EXTT0=
EXTT1=
EXTT2=
EXTT3=
EXTT4=
EXTT5=
EXTT6=
EXTT7=
EXTT8=
EXTT9=
PLAYORDER=
